<?xml version="1.0" standalone="no"?>
<!DOCTYPE svg PUBLIC "-//W3C//DTD SVG 1.1//EN" "http://www.w3.org/Graphics/SVG/1.1/DTD/svg11.dtd">

<svg style="stroke:black; fill:none; stroke-width:0.25pt; stroke-linejoin:round; font-size:5; text-anchor:middle" xmlns="http://www.w3.org/2000/svg" font-family="Helvetica,Arial,FreeSans,Sans,sans,sans-serif" height="250" width="500" version="1.1" xmlns:xlink="http://www.w3.org/1999/xlink" viewBox="0 0 200 100">

<g font-size="5" id="frame240">

<text stroke="none" y="0" x="0" fill="black" transform="translate(110.75, 99)" id="xlabel240">iteration</text>

<text stroke="none" y="0" x="0" fill="black" transform="translate(6, 45) rotate(-90)" id="ylabel240">RMS position (cm)</text>

<clipPath id="clippath240">

<path d="M 24.5 3 L 197 3 L 197 87 L 24.5 87 Z" />

</clipPath>

<rect width="172.5" stroke="none" y="3.0" x="24.5" fill="none" id="background240" height="84.0" />

<g id="data240" clip-path="url(#clippath240)">

<path stroke-width="0.25pt" d="M24.5 75L197 75" />

<path stroke="none" d="M33.0658 15A1 1 0 0 0 32.0658 14A1 1 0 0 0 31.0658 15A1 1 0 0 0 32.0658 16A1 1 0 0 0 33.0658 15M48.1974 58.5062A1 1 0 0 0 47.1974 57.5062A1 1 0 0 0 46.1974 58.5062A1 1 0 0 0 47.1974 59.5062A1 1 0 0 0 48.1974 58.5062M63.3289 68.103A1 1 0 0 0 62.3289 67.103A1 1 0 0 0 61.3289 68.103A1 1 0 0 0 62.3289 69.103A1 1 0 0 0 63.3289 68.103M78.4605 68.99A1 1 0 0 0 77.4605 67.99A1 1 0 0 0 76.4605 68.99A1 1 0 0 0 77.4605 69.99A1 1 0 0 0 78.4605 68.99" fill="rgb(0,0,0)" />

<path stroke="none" d="M33.5387 15A1 1 0 0 0 32.5387 14A1 1 0 0 0 31.5387 15A1 1 0 0 0 32.5387 16A1 1 0 0 0 33.5387 15M48.6702 54.7766A1 1 0 0 0 47.6702 53.7766A1 1 0 0 0 46.6702 54.7766A1 1 0 0 0 47.6702 55.7766A1 1 0 0 0 48.6702 54.7766M63.8018 66.9748A1 1 0 0 0 62.8018 65.9748A1 1 0 0 0 61.8018 66.9748A1 1 0 0 0 62.8018 67.9748A1 1 0 0 0 63.8018 66.9748M78.9334 69.4717A1 1 0 0 0 77.9334 68.4717A1 1 0 0 0 76.9334 69.4717A1 1 0 0 0 77.9334 70.4717A1 1 0 0 0 78.9334 69.4717" fill="rgb(0,0,47)" />

<path stroke="none" d="M34.0115 15A1 1 0 0 0 33.0115 14A1 1 0 0 0 32.0115 15A1 1 0 0 0 33.0115 16A1 1 0 0 0 34.0115 15M49.1431 47.1126A1 1 0 0 0 48.1431 46.1126A1 1 0 0 0 47.1431 47.1126A1 1 0 0 0 48.1431 48.1126A1 1 0 0 0 49.1431 47.1126M64.2747 61.8374A1 1 0 0 0 63.2747 60.8374A1 1 0 0 0 62.2747 61.8374A1 1 0 0 0 63.2747 62.8374A1 1 0 0 0 64.2747 61.8374M79.4062 68.2984A1 1 0 0 0 78.4062 67.2984A1 1 0 0 0 77.4062 68.2984A1 1 0 0 0 78.4062 69.2984A1 1 0 0 0 79.4062 68.2984" fill="rgb(0,0,137)" />

<path stroke="none" d="M34.4844 15A1 1 0 0 0 33.4844 14A1 1 0 0 0 32.4844 15A1 1 0 0 0 33.4844 16A1 1 0 0 0 34.4844 15M49.616 41.8117A1 1 0 0 0 48.616 40.8117A1 1 0 0 0 47.616 41.8117A1 1 0 0 0 48.616 42.8117A1 1 0 0 0 49.616 41.8117M64.7475 56.5536A1 1 0 0 0 63.7475 55.5536A1 1 0 0 0 62.7475 56.5536A1 1 0 0 0 63.7475 57.5536A1 1 0 0 0 64.7475 56.5536" fill="rgb(0,0,255)" />

<path stroke="none" d="M34.9572 15A1 1 0 0 0 33.9572 14A1 1 0 0 0 32.9572 15A1 1 0 0 0 33.9572 16A1 1 0 0 0 34.9572 15M50.0888 64.7601A1 1 0 0 0 49.0888 63.7601A1 1 0 0 0 48.0888 64.7601A1 1 0 0 0 49.0888 65.7601A1 1 0 0 0 50.0888 64.7601M65.2204 68.978A1 1 0 0 0 64.2204 67.978A1 1 0 0 0 63.2204 68.978A1 1 0 0 0 64.2204 69.978A1 1 0 0 0 65.2204 68.978M80.352 68.9321A1 1 0 0 0 79.352 67.9321A1 1 0 0 0 78.352 68.9321A1 1 0 0 0 79.352 69.9321A1 1 0 0 0 80.352 68.9321" fill="rgb(47,0,0)" />

<path stroke="none" d="M35.4301 15A1 1 0 0 0 34.4301 14A1 1 0 0 0 33.4301 15A1 1 0 0 0 34.4301 16A1 1 0 0 0 35.4301 15M50.5617 62.5852A1 1 0 0 0 49.5617 61.5852A1 1 0 0 0 48.5617 62.5852A1 1 0 0 0 49.5617 63.5852A1 1 0 0 0 50.5617 62.5852M65.6933 69.4404A1 1 0 0 0 64.6933 68.4404A1 1 0 0 0 63.6933 69.4404A1 1 0 0 0 64.6933 70.4404A1 1 0 0 0 65.6933 69.4404M80.8248 69.6475A1 1 0 0 0 79.8248 68.6475A1 1 0 0 0 78.8248 69.6475A1 1 0 0 0 79.8248 70.6475A1 1 0 0 0 80.8248 69.6475" fill="rgb(47,0,47)" />

<path stroke="none" d="M35.903 15A1 1 0 0 0 34.903 14A1 1 0 0 0 33.903 15A1 1 0 0 0 34.903 16A1 1 0 0 0 35.903 15M51.0345 56.9846A1 1 0 0 0 50.0345 55.9846A1 1 0 0 0 49.0345 56.9846A1 1 0 0 0 50.0345 57.9846A1 1 0 0 0 51.0345 56.9846M66.1661 68.8594A1 1 0 0 0 65.1661 67.8594A1 1 0 0 0 64.1661 68.8594A1 1 0 0 0 65.1661 69.8594A1 1 0 0 0 66.1661 68.8594M81.2977 71.2766A1 1 0 0 0 80.2977 70.2766A1 1 0 0 0 79.2977 71.2766A1 1 0 0 0 80.2977 72.2766A1 1 0 0 0 81.2977 71.2766" fill="rgb(47,0,137)" />

<path stroke="none" d="M36.3758 15A1 1 0 0 0 35.3758 14A1 1 0 0 0 34.3758 15A1 1 0 0 0 35.3758 16A1 1 0 0 0 36.3758 15M51.5074 52.2677A1 1 0 0 0 50.5074 51.2677A1 1 0 0 0 49.5074 52.2677A1 1 0 0 0 50.5074 53.2677A1 1 0 0 0 51.5074 52.2677M66.639 66.1431A1 1 0 0 0 65.639 65.1431A1 1 0 0 0 64.639 66.1431A1 1 0 0 0 65.639 67.1431A1 1 0 0 0 66.639 66.1431M81.7706 71.0022A1 1 0 0 0 80.7706 70.0022A1 1 0 0 0 79.7706 71.0022A1 1 0 0 0 80.7706 72.0022A1 1 0 0 0 81.7706 71.0022" fill="rgb(47,0,255)" />

<path stroke="none" d="M36.8487 15A1 1 0 0 0 35.8487 14A1 1 0 0 0 34.8487 15A1 1 0 0 0 35.8487 16A1 1 0 0 0 36.8487 15M51.9803 68.7776A1 1 0 0 0 50.9803 67.7776A1 1 0 0 0 49.9803 68.7776A1 1 0 0 0 50.9803 69.7776A1 1 0 0 0 51.9803 68.7776M67.1118 68.9155A1 1 0 0 0 66.1118 67.9155A1 1 0 0 0 65.1118 68.9155A1 1 0 0 0 66.1118 69.9155A1 1 0 0 0 67.1118 68.9155M82.2434 68.9156A1 1 0 0 0 81.2434 67.9156A1 1 0 0 0 80.2434 68.9156A1 1 0 0 0 81.2434 69.9156A1 1 0 0 0 82.2434 68.9156" fill="rgb(137,0,0)" />

<path stroke="none" d="M37.3215 15A1 1 0 0 0 36.3215 14A1 1 0 0 0 35.3215 15A1 1 0 0 0 36.3215 16A1 1 0 0 0 37.3215 15M52.4531 69.0062A1 1 0 0 0 51.4531 68.0062A1 1 0 0 0 50.4531 69.0062A1 1 0 0 0 51.4531 70.0062A1 1 0 0 0 52.4531 69.0062M67.5847 69.6192A1 1 0 0 0 66.5847 68.6192A1 1 0 0 0 65.5847 69.6192A1 1 0 0 0 66.5847 70.6192A1 1 0 0 0 67.5847 69.6192M82.7163 69.6192A1 1 0 0 0 81.7163 68.6192A1 1 0 0 0 80.7163 69.6192A1 1 0 0 0 81.7163 70.6192A1 1 0 0 0 82.7163 69.6192" fill="rgb(137,0,47)" />

<path stroke="none" d="M37.7944 15A1 1 0 0 0 36.7944 14A1 1 0 0 0 35.7944 15A1 1 0 0 0 36.7944 16A1 1 0 0 0 37.7944 15M52.926 68.4951A1 1 0 0 0 51.926 67.4951A1 1 0 0 0 50.926 68.4951A1 1 0 0 0 51.926 69.4951A1 1 0 0 0 52.926 68.4951M68.0576 71.4783A1 1 0 0 0 67.0576 70.4783A1 1 0 0 0 66.0576 71.4783A1 1 0 0 0 67.0576 72.4783A1 1 0 0 0 68.0576 71.4783M83.1891 71.4109A1 1 0 0 0 82.1891 70.4109A1 1 0 0 0 81.1891 71.4109A1 1 0 0 0 82.1891 72.4109A1 1 0 0 0 83.1891 71.4109" fill="rgb(137,0,137)" />

<path stroke="none" d="M38.2673 15A1 1 0 0 0 37.2673 14A1 1 0 0 0 36.2673 15A1 1 0 0 0 37.2673 16A1 1 0 0 0 38.2673 15M53.3988 66.7572A1 1 0 0 0 52.3988 65.7572A1 1 0 0 0 51.3988 66.7572A1 1 0 0 0 52.3988 67.7572A1 1 0 0 0 53.3988 66.7572M68.5304 72.3969A1 1 0 0 0 67.5304 71.3969A1 1 0 0 0 66.5304 72.3969A1 1 0 0 0 67.5304 73.3969A1 1 0 0 0 68.5304 72.3969M83.662 72.5995A1 1 0 0 0 82.662 71.5995A1 1 0 0 0 81.662 72.5995A1 1 0 0 0 82.662 73.5995A1 1 0 0 0 83.662 72.5995" fill="rgb(137,0,255)" />

<path stroke="none" d="M38.7401 15A1 1 0 0 0 37.7401 14A1 1 0 0 0 36.7401 15A1 1 0 0 0 37.7401 16A1 1 0 0 0 38.7401 15M53.8717 68.9561A1 1 0 0 0 52.8717 67.9561A1 1 0 0 0 51.8717 68.9561A1 1 0 0 0 52.8717 69.9561A1 1 0 0 0 53.8717 68.9561M69.0033 68.815A1 1 0 0 0 68.0033 67.815A1 1 0 0 0 67.0033 68.815A1 1 0 0 0 68.0033 69.815A1 1 0 0 0 69.0033 68.815M84.1349 68.815A1 1 0 0 0 83.1349 67.815A1 1 0 0 0 82.1349 68.815A1 1 0 0 0 83.1349 69.815A1 1 0 0 0 84.1349 68.815" fill="rgb(255,0,0)" />

<path stroke="none" d="M39.213 15A1 1 0 0 0 38.213 14A1 1 0 0 0 37.213 15A1 1 0 0 0 38.213 16A1 1 0 0 0 39.213 15M54.3446 69.6487A1 1 0 0 0 53.3446 68.6487A1 1 0 0 0 52.3446 69.6487A1 1 0 0 0 53.3446 70.6487A1 1 0 0 0 54.3446 69.6487M69.4762 69.5753A1 1 0 0 0 68.4762 68.5753A1 1 0 0 0 67.4762 69.5753A1 1 0 0 0 68.4762 70.5753A1 1 0 0 0 69.4762 69.5753M84.6077 69.5753A1 1 0 0 0 83.6077 68.5753A1 1 0 0 0 82.6077 69.5753A1 1 0 0 0 83.6077 70.5753A1 1 0 0 0 84.6077 69.5753" fill="rgb(255,0,47)" />

<path stroke="none" d="M39.6859 15A1 1 0 0 0 38.6859 14A1 1 0 0 0 37.6859 15A1 1 0 0 0 38.6859 16A1 1 0 0 0 39.6859 15M54.8174 71.4163A1 1 0 0 0 53.8174 70.4163A1 1 0 0 0 52.8174 71.4163A1 1 0 0 0 53.8174 72.4163A1 1 0 0 0 54.8174 71.4163M69.949 71.4641A1 1 0 0 0 68.949 70.4641A1 1 0 0 0 67.949 71.4641A1 1 0 0 0 68.949 72.4641A1 1 0 0 0 69.949 71.4641M85.0806 71.4641A1 1 0 0 0 84.0806 70.4641A1 1 0 0 0 83.0806 71.4641A1 1 0 0 0 84.0806 72.4641A1 1 0 0 0 85.0806 71.4641" fill="rgb(255,0,137)" />

<path stroke="none" d="M40.1587 15A1 1 0 0 0 39.1587 14A1 1 0 0 0 38.1587 15A1 1 0 0 0 39.1587 16A1 1 0 0 0 40.1587 15M55.2903 72.2181A1 1 0 0 0 54.2903 71.2181A1 1 0 0 0 53.2903 72.2181A1 1 0 0 0 54.2903 73.2181A1 1 0 0 0 55.2903 72.2181M70.4219 72.5996A1 1 0 0 0 69.4219 71.5996A1 1 0 0 0 68.4219 72.5996A1 1 0 0 0 69.4219 73.5996A1 1 0 0 0 70.4219 72.5996M85.5535 72.5995A1 1 0 0 0 84.5535 71.5995A1 1 0 0 0 83.5535 72.5995A1 1 0 0 0 84.5535 73.5995A1 1 0 0 0 85.5535 72.5995" fill="rgb(255,0,255)" />

</g>

<path id="xticks240" d="M24.5 87L197 87M32.0658 87L32.0658 85M47.1974 87L47.1974 85M62.3289 87L62.3289 85M77.4605 87L77.4605 85M92.5921 87L92.5921 85M107.724 87L107.724 85M122.855 87L122.855 85M137.987 87L137.987 85M153.118 87L153.118 85M168.25 87L168.25 85M183.382 87L183.382 85M197 87L197 87" />

<g stroke="none" id="xticklabels240" fill="black">

<text y="93.0" x="32.0657894737">0</text>

<text y="93.0" x="47.1973684211">1</text>

<text y="93.0" x="62.3289473684">2</text>

<text y="93.0" x="77.4605263158">3</text>

<text y="93.0" x="92.5921052632">4</text>

<text y="93.0" x="107.723684211">5</text>

<text y="93.0" x="122.855263158">6</text>

<text y="93.0" x="137.986842105">7</text>

<text y="93.0" x="153.118421053">8</text>

<text y="93.0" x="168.25">9</text>

<text y="93.0" x="183.381578947">10</text>

</g>

<path id="yticks240" d="M24.5 87L24.5 3M24.5 75L26.5 75M24.5 15L26.5 15M24.5 51L26.5 51M24.5 27L26.5 27M24.5 39L26.5 39M24.5 63L26.5 63M24.5 81L25.5 81M24.5 69L25.5 69M24.5 57L25.5 57M24.5 45L25.5 45M24.5 33L25.5 33M24.5 21L25.5 21M24.5 9L25.5 9M24.5 3.00001L24.5 3" />

<g stroke="none" id="yticklabels240" text-anchor="end" fill="black">

<text y="76.75" x="23.5">0</text>

<text y="16.75" x="23.5">1</text>

<text y="52.75" x="23.5">0.4</text>

<text y="28.75" x="23.5">0.8</text>

<text y="4.75" x="23.5">1.2</text>

<text y="40.75" x="23.5">0.6</text>

<text y="64.75" x="23.5">0.2</text>

<text y="88.75" x="23.5">–0.2</text>

</g>

<path id="rightticks240" d="M197 87L197 3M197 75L195 75M197 15L195 15M197 51L195 51M197 27L195 27M197 39L195 39M197 63L195 63M197 81L196 81M197 69L196 69M197 57L196 57M197 45L196 45M197 33L196 33M197 21L196 21M197 9L196 9M197 3.00001L197 3" />

<g stroke="none" id="rightticklabels240" text-anchor="start" fill="black" />

<path id="topticks240" d="M24.5 3L197 3M32.0658 3L32.0658 5M47.1974 3L47.1974 5M62.3289 3L62.3289 5M77.4605 3L77.4605 5M92.5921 3L92.5921 5M107.724 3L107.724 5M122.855 3L122.855 5M137.987 3L137.987 5M153.118 3L153.118 5M168.25 3L168.25 5M183.382 3L183.382 5M197 3L197 3" />

<g stroke="none" id="topticklabels240" fill="black" />

</g>

<text stroke="none" transform="translate(165, 13)" font-size="5" fill="black">APE of ME12 (cm)</text>

<text stroke="none" transform="translate(134, 38) rotate(-90)" font-size="5" fill="black">APE outside</text>

<text y="20" x="150" font-size="5" stroke="none" fill="black">0.7</text>

<text y="20" x="160" font-size="5" stroke="none" fill="black">1.0</text>

<text y="20" x="170" font-size="5" stroke="none" fill="black">2.0</text>

<text y="20" x="180" font-size="5" stroke="none" fill="black">5.0</text>

<text y="28" x="140" font-size="5" stroke="none" fill="black">0.7</text>

<text y="36" x="140" font-size="5" stroke="none" fill="black">1.0</text>

<text y="44" x="140" font-size="5" stroke="none" fill="black">2.0</text>

<text y="52" x="140" font-size="5" stroke="none" fill="black">5.0</text>

<circle stroke="none" cx="150" r="1.5" cy="26" fill="rgb(0,0,0)" />

<circle stroke="none" cx="150" r="1.5" cy="34" fill="rgb(0,0,47)" />

<circle stroke="none" cx="150" r="1.5" cy="42" fill="rgb(0,0,137)" />

<circle stroke="none" cx="150" r="1.5" cy="50" fill="rgb(0,0,255)" />

<circle stroke="none" cx="160" r="1.5" cy="26" fill="rgb(47,0,0)" />

<circle stroke="none" cx="160" r="1.5" cy="34" fill="rgb(47,0,47)" />

<circle stroke="none" cx="160" r="1.5" cy="42" fill="rgb(47,0,137)" />

<circle stroke="none" cx="160" r="1.5" cy="50" fill="rgb(47,0,255)" />

<circle stroke="none" cx="170" r="1.5" cy="26" fill="rgb(137,0,0)" />

<circle stroke="none" cx="170" r="1.5" cy="34" fill="rgb(137,0,47)" />

<circle stroke="none" cx="170" r="1.5" cy="42" fill="rgb(137,0,137)" />

<circle stroke="none" cx="170" r="1.5" cy="50" fill="rgb(137,0,255)" />

<circle stroke="none" cx="180" r="1.5" cy="26" fill="rgb(255,0,0)" />

<circle stroke="none" cx="180" r="1.5" cy="34" fill="rgb(255,0,47)" />

<circle stroke="none" cx="180" r="1.5" cy="42" fill="rgb(255,0,137)" />

<circle stroke="none" cx="180" r="1.5" cy="50" fill="rgb(255,0,255)" />

</svg>

