<?xml version="1.0" standalone="no"?>
<!DOCTYPE svg PUBLIC "-//W3C//DTD SVG 1.1//EN" "http://www.w3.org/Graphics/SVG/1.1/DTD/svg11.dtd">

<svg style="stroke:black; fill:none; stroke-width:0.25pt; stroke-linejoin:round; font-size:5; text-anchor:middle" xmlns="http://www.w3.org/2000/svg" font-family="Helvetica,Arial,FreeSans,Sans,sans,sans-serif" height="250" width="500" version="1.1" xmlns:xlink="http://www.w3.org/1999/xlink" viewBox="0 0 200 100">

<g font-size="5" id="frame400">

<text stroke="none" y="0" x="0" fill="black" transform="translate(110.75, 99)" id="xlabel400">iteration</text>

<text stroke="none" y="0" x="0" fill="black" transform="translate(6, 45) rotate(-90)" id="ylabel400">Mean and stdev position (cm)</text>

<clipPath id="clippath400">

<path d="M 24.5 3 L 197 3 L 197 87 L 24.5 87 Z" />

</clipPath>

<rect width="172.5" stroke="none" y="3.0" x="24.5" fill="none" id="background400" height="84.0" />

<g id="data400" clip-path="url(#clippath400)">

<path stroke-width="0.25pt" d="M24.5 75L197 75" />

<g>

<path stroke="rgb(0,0,0)" d="M32.0658 15M32.0658 15M31.0658 15L33.0658 15M32.0658 15L32.0658 15M31.0658 15L33.0658 15M32.0658 15M32.0658 15M47.1974 59.1082M47.1974 63.5237M46.1974 63.5237L48.1974 63.5237M47.1974 63.5237L47.1974 54.6926M46.1974 54.6926L48.1974 54.6926M47.1974 54.6926M47.1974 59.1082M62.3289 71.0022M62.3289 76.6223M61.3289 76.6223L63.3289 76.6223M62.3289 76.6223L62.3289 65.3821M61.3289 65.3821L63.3289 65.3821M62.3289 65.3821M62.3289 71.0022M77.4605 74.2134M77.4605 80.1716M76.4605 80.1716L78.4605 80.1716M77.4605 80.1716L77.4605 68.2551M76.4605 68.2551L78.4605 68.2551M77.4605 68.2551M77.4605 74.2134" fill="none" />

<path stroke="none" d="M33.0658 15A1 1 0 0 0 32.0658 14A1 1 0 0 0 31.0658 15A1 1 0 0 0 32.0658 16A1 1 0 0 0 33.0658 15M48.1974 59.1082A1 1 0 0 0 47.1974 58.1082A1 1 0 0 0 46.1974 59.1082A1 1 0 0 0 47.1974 60.1082A1 1 0 0 0 48.1974 59.1082M63.3289 71.0022A1 1 0 0 0 62.3289 70.0022A1 1 0 0 0 61.3289 71.0022A1 1 0 0 0 62.3289 72.0022A1 1 0 0 0 63.3289 71.0022M78.4605 74.2134A1 1 0 0 0 77.4605 73.2134A1 1 0 0 0 76.4605 74.2134A1 1 0 0 0 77.4605 75.2134A1 1 0 0 0 78.4605 74.2134" fill="rgb(0,0,0)" />

</g>

<g>

<path stroke="rgb(0,0,47)" d="M32.5387 15M32.5387 15M31.5387 15L33.5387 15M32.5387 15L32.5387 15M31.5387 15L33.5387 15M32.5387 15M32.5387 15M47.6702 55.0869M47.6702 58.6161M46.6702 58.6161L48.6702 58.6161M47.6702 58.6161L47.6702 51.5577M46.6702 51.5577L48.6702 51.5577M47.6702 51.5577M47.6702 55.0869M62.8018 68.5224M62.8018 73.2598M61.8018 73.2598L63.8018 73.2598M62.8018 73.2598L62.8018 63.7849M61.8018 63.7849L63.8018 63.7849M62.8018 63.7849M62.8018 68.5224M77.9334 73.0297M77.9334 78.195M76.9334 78.195L78.9334 78.195M77.9334 78.195L77.9334 67.8645M76.9334 67.8645L78.9334 67.8645M77.9334 67.8645M77.9334 73.0297" fill="none" />

<path stroke="none" d="M33.5387 15A1 1 0 0 0 32.5387 14A1 1 0 0 0 31.5387 15A1 1 0 0 0 32.5387 16A1 1 0 0 0 33.5387 15M48.6702 55.0869A1 1 0 0 0 47.6702 54.0869A1 1 0 0 0 46.6702 55.0869A1 1 0 0 0 47.6702 56.0869A1 1 0 0 0 48.6702 55.0869M63.8018 68.5224A1 1 0 0 0 62.8018 67.5224A1 1 0 0 0 61.8018 68.5224A1 1 0 0 0 62.8018 69.5224A1 1 0 0 0 63.8018 68.5224M78.9334 73.0297A1 1 0 0 0 77.9334 72.0297A1 1 0 0 0 76.9334 73.0297A1 1 0 0 0 77.9334 74.0297A1 1 0 0 0 78.9334 73.0297" fill="rgb(0,0,47)" />

</g>

<g>

<path stroke="rgb(0,0,137)" d="M33.0115 15M33.0115 15M32.0115 15L34.0115 15M33.0115 15L33.0115 15M32.0115 15L34.0115 15M33.0115 15M33.0115 15M48.1431 47.1745M48.1431 49.0306M47.1431 49.0306L49.1431 49.0306M48.1431 49.0306L48.1431 45.3184M47.1431 45.3184L49.1431 45.3184M48.1431 45.3184M48.1431 47.1745M63.2747 62.115M63.2747 64.804M62.2747 64.804L64.2747 64.804M63.2747 64.804L63.2747 59.426M62.2747 59.426L64.2747 59.426M63.2747 59.426M63.2747 62.115M78.4062 69.0581M78.4062 72.1573M77.4062 72.1573L79.4062 72.1573M78.4062 72.1573L78.4062 65.9589M77.4062 65.9589L79.4062 65.9589M78.4062 65.9589M78.4062 69.0581" fill="none" />

<path stroke="none" d="M34.0115 15A1 1 0 0 0 33.0115 14A1 1 0 0 0 32.0115 15A1 1 0 0 0 33.0115 16A1 1 0 0 0 34.0115 15M49.1431 47.1745A1 1 0 0 0 48.1431 46.1745A1 1 0 0 0 47.1431 47.1745A1 1 0 0 0 48.1431 48.1745A1 1 0 0 0 49.1431 47.1745M64.2747 62.115A1 1 0 0 0 63.2747 61.115A1 1 0 0 0 62.2747 62.115A1 1 0 0 0 63.2747 63.115A1 1 0 0 0 64.2747 62.115M79.4062 69.0581A1 1 0 0 0 78.4062 68.0581A1 1 0 0 0 77.4062 69.0581A1 1 0 0 0 78.4062 70.0581A1 1 0 0 0 79.4062 69.0581" fill="rgb(0,0,137)" />

</g>

<g>

<path stroke="rgb(0,0,255)" d="M33.4844 15M33.4844 15M32.4844 15L34.4844 15M33.4844 15L33.4844 15M32.4844 15L34.4844 15M33.4844 15M33.4844 15M48.616 41.8349M48.616 43.0755M47.616 43.0755L49.616 43.0755M48.616 43.0755L48.616 40.5943M47.616 40.5943L49.616 40.5943M48.616 40.5943M48.616 41.8349M63.7475 56.6374M63.7475 58.3938M62.7475 58.3938L64.7475 58.3938M63.7475 58.3938L63.7475 54.8811M62.7475 54.8811L64.7475 54.8811M63.7475 54.8811M63.7475 56.6374" fill="none" />

<path stroke="none" d="M34.4844 15A1 1 0 0 0 33.4844 14A1 1 0 0 0 32.4844 15A1 1 0 0 0 33.4844 16A1 1 0 0 0 34.4844 15M49.616 41.8349A1 1 0 0 0 48.616 40.8349A1 1 0 0 0 47.616 41.8349A1 1 0 0 0 48.616 42.8349A1 1 0 0 0 49.616 41.8349M64.7475 56.6374A1 1 0 0 0 63.7475 55.6374A1 1 0 0 0 62.7475 56.6374A1 1 0 0 0 63.7475 57.6374A1 1 0 0 0 64.7475 56.6374" fill="rgb(0,0,255)" />

</g>

<g>

<path stroke="rgb(47,0,0)" d="M33.9572 15M33.9572 15M32.9572 15L34.9572 15M33.9572 15L33.9572 15M32.9572 15L34.9572 15M33.9572 15M33.9572 15M49.0888 66.1351M49.0888 71.2603M48.0888 71.2603L50.0888 71.2603M49.0888 71.2603L49.0888 61.0098M48.0888 61.0098L50.0888 61.0098M49.0888 61.0098M49.0888 66.1351M64.2204 73.9786M64.2204 79.9134M63.2204 79.9134L65.2204 79.9134M64.2204 79.9134L64.2204 68.0439M63.2204 68.0439L65.2204 68.0439M64.2204 68.0439M64.2204 73.9786M79.352 75.1837M79.352 81.2488M78.352 81.2488L80.352 81.2488M79.352 81.2488L79.352 69.1186M78.352 69.1186L80.352 69.1186M79.352 69.1186M79.352 75.1837" fill="none" />

<path stroke="none" d="M34.9572 15A1 1 0 0 0 33.9572 14A1 1 0 0 0 32.9572 15A1 1 0 0 0 33.9572 16A1 1 0 0 0 34.9572 15M50.0888 66.1351A1 1 0 0 0 49.0888 65.1351A1 1 0 0 0 48.0888 66.1351A1 1 0 0 0 49.0888 67.1351A1 1 0 0 0 50.0888 66.1351M65.2204 73.9786A1 1 0 0 0 64.2204 72.9786A1 1 0 0 0 63.2204 73.9786A1 1 0 0 0 64.2204 74.9786A1 1 0 0 0 65.2204 73.9786M80.352 75.1837A1 1 0 0 0 79.352 74.1837A1 1 0 0 0 78.352 75.1837A1 1 0 0 0 79.352 76.1837A1 1 0 0 0 80.352 75.1837" fill="rgb(47,0,0)" />

</g>

<g>

<path stroke="rgb(47,0,47)" d="M34.4301 15M34.4301 15M33.4301 15L35.4301 15M34.4301 15L34.4301 15M33.4301 15L35.4301 15M34.4301 15M34.4301 15M49.5617 63.3433M49.5617 67.6152M48.5617 67.6152L50.5617 67.6152M49.5617 67.6152L49.5617 59.0714M48.5617 59.0714L50.5617 59.0714M49.5617 59.0714M49.5617 63.3433M64.6933 72.9317M64.6933 78.0923M63.6933 78.0923L65.6933 78.0923M64.6933 78.0923L64.6933 67.7712M63.6933 67.7712L65.6933 67.7712M64.6933 67.7712M64.6933 72.9317M79.8248 74.8361M79.8248 80.186M78.8248 80.186L80.8248 80.186M79.8248 80.186L79.8248 69.4861M78.8248 69.4861L80.8248 69.4861M79.8248 69.4861M79.8248 74.8361" fill="none" />

<path stroke="none" d="M35.4301 15A1 1 0 0 0 34.4301 14A1 1 0 0 0 33.4301 15A1 1 0 0 0 34.4301 16A1 1 0 0 0 35.4301 15M50.5617 63.3433A1 1 0 0 0 49.5617 62.3433A1 1 0 0 0 48.5617 63.3433A1 1 0 0 0 49.5617 64.3433A1 1 0 0 0 50.5617 63.3433M65.6933 72.9317A1 1 0 0 0 64.6933 71.9317A1 1 0 0 0 63.6933 72.9317A1 1 0 0 0 64.6933 73.9317A1 1 0 0 0 65.6933 72.9317M80.8248 74.8361A1 1 0 0 0 79.8248 73.8361A1 1 0 0 0 78.8248 74.8361A1 1 0 0 0 79.8248 75.8361A1 1 0 0 0 80.8248 74.8361" fill="rgb(47,0,47)" />

</g>

<g>

<path stroke="rgb(47,0,137)" d="M34.903 15M34.903 15M33.903 15L35.903 15M34.903 15L34.903 15M33.903 15L35.903 15M34.903 15M34.903 15M50.0345 57.1459M50.0345 59.5516M49.0345 59.5516L51.0345 59.5516M50.0345 59.5516L50.0345 54.7402M49.0345 54.7402L51.0345 54.7402M50.0345 54.7402M50.0345 57.1459M65.1661 69.7294M65.1661 72.8803M64.1661 72.8803L66.1661 72.8803M65.1661 72.8803L65.1661 66.5785M64.1661 66.5785L66.1661 66.5785M65.1661 66.5785M65.1661 69.7294M80.2977 73.4911M80.2977 76.8951M79.2977 76.8951L81.2977 76.8951M80.2977 76.8951L80.2977 70.0872M79.2977 70.0872L81.2977 70.0872M80.2977 70.0872M80.2977 73.4911" fill="none" />

<path stroke="none" d="M35.903 15A1 1 0 0 0 34.903 14A1 1 0 0 0 33.903 15A1 1 0 0 0 34.903 16A1 1 0 0 0 35.903 15M51.0345 57.1459A1 1 0 0 0 50.0345 56.1459A1 1 0 0 0 49.0345 57.1459A1 1 0 0 0 50.0345 58.1459A1 1 0 0 0 51.0345 57.1459M66.1661 69.7294A1 1 0 0 0 65.1661 68.7294A1 1 0 0 0 64.1661 69.7294A1 1 0 0 0 65.1661 70.7294A1 1 0 0 0 66.1661 69.7294M81.2977 73.4911A1 1 0 0 0 80.2977 72.4911A1 1 0 0 0 79.2977 73.4911A1 1 0 0 0 80.2977 74.4911A1 1 0 0 0 81.2977 73.4911" fill="rgb(47,0,137)" />

</g>

<g>

<path stroke="rgb(47,0,255)" d="M35.3758 15M35.3758 15M34.3758 15L36.3758 15M35.3758 15L35.3758 15M34.3758 15L36.3758 15M35.3758 15M35.3758 15M50.5074 52.3217M50.5074 53.8873M49.5074 53.8873L51.5074 53.8873M50.5074 53.8873L50.5074 50.7561M49.5074 50.7561L51.5074 50.7561M50.5074 50.7561M50.5074 52.3217M65.639 66.381M65.639 68.42M64.639 68.42L66.639 68.42M65.639 68.42L65.639 64.342M64.639 64.342L66.639 64.342M65.639 64.342M65.639 66.381M80.7706 71.6839M80.7706 73.9168M79.7706 73.9168L81.7706 73.9168M80.7706 73.9168L80.7706 69.451M79.7706 69.451L81.7706 69.451M80.7706 69.451M80.7706 71.6839" fill="none" />

<path stroke="none" d="M36.3758 15A1 1 0 0 0 35.3758 14A1 1 0 0 0 34.3758 15A1 1 0 0 0 35.3758 16A1 1 0 0 0 36.3758 15M51.5074 52.3217A1 1 0 0 0 50.5074 51.3217A1 1 0 0 0 49.5074 52.3217A1 1 0 0 0 50.5074 53.3217A1 1 0 0 0 51.5074 52.3217M66.639 66.381A1 1 0 0 0 65.639 65.381A1 1 0 0 0 64.639 66.381A1 1 0 0 0 65.639 67.381A1 1 0 0 0 66.639 66.381M81.7706 71.6839A1 1 0 0 0 80.7706 70.6839A1 1 0 0 0 79.7706 71.6839A1 1 0 0 0 80.7706 72.6839A1 1 0 0 0 81.7706 71.6839" fill="rgb(47,0,255)" />

</g>

<g>

<path stroke="rgb(137,0,0)" d="M35.8487 15M35.8487 15M34.8487 15L36.8487 15M35.8487 15L35.8487 15M34.8487 15L36.8487 15M35.8487 15M35.8487 15M50.9803 72.7814M50.9803 78.5948M49.9803 78.5948L51.9803 78.5948M50.9803 78.5948L50.9803 66.968M49.9803 66.968L51.9803 66.968M50.9803 66.968M50.9803 72.7814M66.1118 75.2892M66.1118 81.3668M65.1118 81.3668L67.1118 81.3668M66.1118 81.3668L66.1118 69.2116M65.1118 69.2116L67.1118 69.2116M66.1118 69.2116M66.1118 75.2892M81.2434 75.2892M81.2434 81.3668M80.2434 81.3668L82.2434 81.3668M81.2434 81.3668L81.2434 69.2116M80.2434 69.2116L82.2434 69.2116M81.2434 69.2116M81.2434 75.2892" fill="none" />

<path stroke="none" d="M36.8487 15A1 1 0 0 0 35.8487 14A1 1 0 0 0 34.8487 15A1 1 0 0 0 35.8487 16A1 1 0 0 0 36.8487 15M51.9803 72.7814A1 1 0 0 0 50.9803 71.7814A1 1 0 0 0 49.9803 72.7814A1 1 0 0 0 50.9803 73.7814A1 1 0 0 0 51.9803 72.7814M67.1118 75.2892A1 1 0 0 0 66.1118 74.2892A1 1 0 0 0 65.1118 75.2892A1 1 0 0 0 66.1118 76.2892A1 1 0 0 0 67.1118 75.2892M82.2434 75.2892A1 1 0 0 0 81.2434 74.2892A1 1 0 0 0 80.2434 75.2892A1 1 0 0 0 81.2434 76.2892A1 1 0 0 0 82.2434 75.2892" fill="rgb(137,0,0)" />

</g>

<g>

<path stroke="rgb(137,0,47)" d="M36.3215 15M36.3215 15M35.3215 15L37.3215 15M36.3215 15L36.3215 15M35.3215 15L37.3215 15M36.3215 15M36.3215 15M51.4531 71.7899M51.4531 76.8516M50.4531 76.8516L52.4531 76.8516M51.4531 76.8516L51.4531 66.7281M50.4531 66.7281L52.4531 66.7281M51.4531 66.7281M51.4531 71.7899M66.5847 75.1031M66.5847 80.4829M65.5847 80.4829L67.5847 80.4829M66.5847 80.4829L66.5847 69.7233M65.5847 69.7233L67.5847 69.7233M66.5847 69.7233M66.5847 75.1031M81.7163 75.1031M81.7163 80.4829M80.7163 80.4829L82.7163 80.4829M81.7163 80.4829L81.7163 69.7233M80.7163 69.7233L82.7163 69.7233M81.7163 69.7233M81.7163 75.1031" fill="none" />

<path stroke="none" d="M37.3215 15A1 1 0 0 0 36.3215 14A1 1 0 0 0 35.3215 15A1 1 0 0 0 36.3215 16A1 1 0 0 0 37.3215 15M52.4531 71.7899A1 1 0 0 0 51.4531 70.7899A1 1 0 0 0 50.4531 71.7899A1 1 0 0 0 51.4531 72.7899A1 1 0 0 0 52.4531 71.7899M67.5847 75.1031A1 1 0 0 0 66.5847 74.1031A1 1 0 0 0 65.5847 75.1031A1 1 0 0 0 66.5847 76.1031A1 1 0 0 0 67.5847 75.1031M82.7163 75.1031A1 1 0 0 0 81.7163 74.1031A1 1 0 0 0 80.7163 75.1031A1 1 0 0 0 81.7163 76.1031A1 1 0 0 0 82.7163 75.1031" fill="rgb(137,0,47)" />

</g>

<g>

<path stroke="rgb(137,0,137)" d="M36.7944 15M36.7944 15M35.7944 15L37.7944 15M36.7944 15L36.7944 15M35.7944 15L37.7944 15M36.7944 15M36.7944 15M51.926 69.3053M51.926 72.4492M50.926 72.4492L52.926 72.4492M51.926 72.4492L51.926 66.1613M50.926 66.1613L52.926 66.1613M51.926 66.1613M51.926 69.3053M67.0576 74.5387M67.0576 78.03M66.0576 78.03L68.0576 78.03M67.0576 78.03L67.0576 71.0474M66.0576 71.0474L68.0576 71.0474M67.0576 71.0474M67.0576 74.5387M82.1891 74.589M82.1891 78.1546M81.1891 78.1546L83.1891 78.1546M82.1891 78.1546L82.1891 71.0235M81.1891 71.0235L83.1891 71.0235M82.1891 71.0235M82.1891 74.589" fill="none" />

<path stroke="none" d="M37.7944 15A1 1 0 0 0 36.7944 14A1 1 0 0 0 35.7944 15A1 1 0 0 0 36.7944 16A1 1 0 0 0 37.7944 15M52.926 69.3053A1 1 0 0 0 51.926 68.3053A1 1 0 0 0 50.926 69.3053A1 1 0 0 0 51.926 70.3053A1 1 0 0 0 52.926 69.3053M68.0576 74.5387A1 1 0 0 0 67.0576 73.5387A1 1 0 0 0 66.0576 74.5387A1 1 0 0 0 67.0576 75.5387A1 1 0 0 0 68.0576 74.5387M83.1891 74.589A1 1 0 0 0 82.1891 73.589A1 1 0 0 0 81.1891 74.589A1 1 0 0 0 82.1891 75.589A1 1 0 0 0 83.1891 74.589" fill="rgb(137,0,137)" />

</g>

<g>

<path stroke="rgb(137,0,255)" d="M37.2673 15M37.2673 15M36.2673 15L38.2673 15M37.2673 15L37.2673 15M36.2673 15L38.2673 15M37.2673 15M37.2673 15M52.3988 67.0173M52.3988 69.0718M51.3988 69.0718L53.3988 69.0718M52.3988 69.0718L52.3988 64.9628M51.3988 64.9628L53.3988 64.9628M52.3988 64.9628M52.3988 67.0173M67.5304 73.8632M67.5304 76.2049M66.5304 76.2049L68.5304 76.2049M67.5304 76.2049L67.5304 71.5214M66.5304 71.5214L68.5304 71.5214M67.5304 71.5214M67.5304 73.8632M82.662 74.7661M82.662 77.1552M81.662 77.1552L83.662 77.1552M82.662 77.1552L82.662 72.377M81.662 72.377L83.662 72.377M82.662 72.377M82.662 74.7661" fill="none" />

<path stroke="none" d="M38.2673 15A1 1 0 0 0 37.2673 14A1 1 0 0 0 36.2673 15A1 1 0 0 0 37.2673 16A1 1 0 0 0 38.2673 15M53.3988 67.0173A1 1 0 0 0 52.3988 66.0173A1 1 0 0 0 51.3988 67.0173A1 1 0 0 0 52.3988 68.0173A1 1 0 0 0 53.3988 67.0173M68.5304 73.8632A1 1 0 0 0 67.5304 72.8632A1 1 0 0 0 66.5304 73.8632A1 1 0 0 0 67.5304 74.8632A1 1 0 0 0 68.5304 73.8632M83.662 74.7661A1 1 0 0 0 82.662 73.7661A1 1 0 0 0 81.662 74.7661A1 1 0 0 0 82.662 75.7661A1 1 0 0 0 83.662 74.7661" fill="rgb(137,0,255)" />

</g>

<g>

<path stroke="rgb(255,0,0)" d="M37.7401 15M37.7401 15M36.7401 15L38.7401 15M37.7401 15L37.7401 15M36.7401 15L38.7401 15M37.7401 15M37.7401 15M52.8717 74.9674M52.8717 81.0112M51.8717 81.0112L53.8717 81.0112M52.8717 81.0112L52.8717 68.9236M51.8717 68.9236L53.8717 68.9236M52.8717 68.9236M52.8717 74.9674M68.0033 75.3288M68.0033 81.5051M67.0033 81.5051L69.0033 81.5051M68.0033 81.5051L68.0033 69.1525M67.0033 69.1525L69.0033 69.1525M68.0033 69.1525M68.0033 75.3288M83.1349 75.3288M83.1349 81.505M82.1349 81.505L84.1349 81.505M83.1349 81.505L83.1349 69.1525M82.1349 69.1525L84.1349 69.1525M83.1349 69.1525M83.1349 75.3288" fill="none" />

<path stroke="none" d="M38.7401 15A1 1 0 0 0 37.7401 14A1 1 0 0 0 36.7401 15A1 1 0 0 0 37.7401 16A1 1 0 0 0 38.7401 15M53.8717 74.9674A1 1 0 0 0 52.8717 73.9674A1 1 0 0 0 51.8717 74.9674A1 1 0 0 0 52.8717 75.9674A1 1 0 0 0 53.8717 74.9674M69.0033 75.3288A1 1 0 0 0 68.0033 74.3288A1 1 0 0 0 67.0033 75.3288A1 1 0 0 0 68.0033 76.3288A1 1 0 0 0 69.0033 75.3288M84.1349 75.3288A1 1 0 0 0 83.1349 74.3288A1 1 0 0 0 82.1349 75.3288A1 1 0 0 0 83.1349 76.3288A1 1 0 0 0 84.1349 75.3288" fill="rgb(255,0,0)" />

</g>

<g>

<path stroke="rgb(255,0,47)" d="M38.213 15M38.213 15M37.213 15L39.213 15M38.213 15L38.213 15M37.213 15L39.213 15M38.213 15M38.213 15M53.3446 74.7162M53.3446 80.06M52.3446 80.06L54.3446 80.06M53.3446 80.06L53.3446 69.3724M52.3446 69.3724L54.3446 69.3724M53.3446 69.3724M53.3446 74.7162M68.4762 75.2966M68.4762 80.7131M67.4762 80.7131L69.4762 80.7131M68.4762 80.7131L68.4762 69.88M67.4762 69.88L69.4762 69.88M68.4762 69.88M68.4762 75.2966M83.6077 75.2966M83.6077 80.7131M82.6077 80.7131L84.6077 80.7131M83.6077 80.7131L83.6077 69.8801M82.6077 69.8801L84.6077 69.8801M83.6077 69.8801M83.6077 75.2966" fill="none" />

<path stroke="none" d="M39.213 15A1 1 0 0 0 38.213 14A1 1 0 0 0 37.213 15A1 1 0 0 0 38.213 16A1 1 0 0 0 39.213 15M54.3446 74.7162A1 1 0 0 0 53.3446 73.7162A1 1 0 0 0 52.3446 74.7162A1 1 0 0 0 53.3446 75.7162A1 1 0 0 0 54.3446 74.7162M69.4762 75.2966A1 1 0 0 0 68.4762 74.2966A1 1 0 0 0 67.4762 75.2966A1 1 0 0 0 68.4762 76.2966A1 1 0 0 0 69.4762 75.2966M84.6077 75.2966A1 1 0 0 0 83.6077 74.2966A1 1 0 0 0 82.6077 75.2966A1 1 0 0 0 83.6077 76.2966A1 1 0 0 0 84.6077 75.2966" fill="rgb(255,0,47)" />

</g>

<g>

<path stroke="rgb(255,0,137)" d="M38.6859 15M38.6859 15M37.6859 15L39.6859 15M38.6859 15L38.6859 15M37.6859 15L39.6859 15M38.6859 15M38.6859 15M53.8174 74.0886M53.8174 77.5545M52.8174 77.5545L54.8174 77.5545M53.8174 77.5545L53.8174 70.6227M52.8174 70.6227L54.8174 70.6227M53.8174 70.6227M53.8174 74.0886M68.949 75.0807M68.949 78.6157M67.949 78.6157L69.949 78.6157M68.949 78.6157L68.949 71.5457M67.949 71.5457L69.949 71.5457M68.949 71.5457M68.949 75.0807M84.0806 75.0806M84.0806 78.6156M83.0806 78.6156L85.0806 78.6156M84.0806 78.6156L84.0806 71.5456M83.0806 71.5456L85.0806 71.5456M84.0806 71.5456M84.0806 75.0806" fill="none" />

<path stroke="none" d="M39.6859 15A1 1 0 0 0 38.6859 14A1 1 0 0 0 37.6859 15A1 1 0 0 0 38.6859 16A1 1 0 0 0 39.6859 15M54.8174 74.0886A1 1 0 0 0 53.8174 73.0886A1 1 0 0 0 52.8174 74.0886A1 1 0 0 0 53.8174 75.0886A1 1 0 0 0 54.8174 74.0886M69.949 75.0807A1 1 0 0 0 68.949 74.0807A1 1 0 0 0 67.949 75.0807A1 1 0 0 0 68.949 76.0807A1 1 0 0 0 69.949 75.0807M85.0806 75.0806A1 1 0 0 0 84.0806 74.0806A1 1 0 0 0 83.0806 75.0806A1 1 0 0 0 84.0806 76.0806A1 1 0 0 0 85.0806 75.0806" fill="rgb(255,0,137)" />

</g>

<g>

<path stroke="rgb(255,0,255)" d="M39.1587 15M39.1587 15M38.1587 15L40.1587 15M39.1587 15L39.1587 15M38.1587 15L40.1587 15M39.1587 15M39.1587 15M54.2903 73.4834M54.2903 75.8156M53.2903 75.8156L55.2903 75.8156M54.2903 75.8156L54.2903 71.1512M53.2903 71.1512L55.2903 71.1512M54.2903 71.1512M54.2903 73.4834M69.4219 74.873M69.4219 77.2701M68.4219 77.2701L70.4219 77.2701M69.4219 77.2701L69.4219 72.4759M68.4219 72.4759L70.4219 72.4759M69.4219 72.4759M69.4219 74.873M84.5535 74.873M84.5535 77.2701M83.5535 77.2701L85.5535 77.2701M84.5535 77.2701L84.5535 72.4759M83.5535 72.4759L85.5535 72.4759M84.5535 72.4759M84.5535 74.873" fill="none" />

<path stroke="none" d="M40.1587 15A1 1 0 0 0 39.1587 14A1 1 0 0 0 38.1587 15A1 1 0 0 0 39.1587 16A1 1 0 0 0 40.1587 15M55.2903 73.4834A1 1 0 0 0 54.2903 72.4834A1 1 0 0 0 53.2903 73.4834A1 1 0 0 0 54.2903 74.4834A1 1 0 0 0 55.2903 73.4834M70.4219 74.873A1 1 0 0 0 69.4219 73.873A1 1 0 0 0 68.4219 74.873A1 1 0 0 0 69.4219 75.873A1 1 0 0 0 70.4219 74.873M85.5535 74.873A1 1 0 0 0 84.5535 73.873A1 1 0 0 0 83.5535 74.873A1 1 0 0 0 84.5535 75.873A1 1 0 0 0 85.5535 74.873" fill="rgb(255,0,255)" />

</g>

</g>

<path id="xticks400" d="M24.5 87L197 87M32.0658 87L32.0658 85M47.1974 87L47.1974 85M62.3289 87L62.3289 85M77.4605 87L77.4605 85M92.5921 87L92.5921 85M107.724 87L107.724 85M122.855 87L122.855 85M137.987 87L137.987 85M153.118 87L153.118 85M168.25 87L168.25 85M183.382 87L183.382 85M197 87L197 87" />

<g stroke="none" id="xticklabels400" fill="black">

<text y="93.0" x="32.0657894737">0</text>

<text y="93.0" x="47.1973684211">1</text>

<text y="93.0" x="62.3289473684">2</text>

<text y="93.0" x="77.4605263158">3</text>

<text y="93.0" x="92.5921052632">4</text>

<text y="93.0" x="107.723684211">5</text>

<text y="93.0" x="122.855263158">6</text>

<text y="93.0" x="137.986842105">7</text>

<text y="93.0" x="153.118421053">8</text>

<text y="93.0" x="168.25">9</text>

<text y="93.0" x="183.381578947">10</text>

</g>

<path id="yticks400" d="M24.5 87L24.5 3M24.5 75L26.5 75M24.5 15L26.5 15M24.5 51L26.5 51M24.5 27L26.5 27M24.5 39L26.5 39M24.5 63L26.5 63M24.5 81L25.5 81M24.5 69L25.5 69M24.5 57L25.5 57M24.5 45L25.5 45M24.5 33L25.5 33M24.5 21L25.5 21M24.5 9L25.5 9M24.5 3.00001L24.5 3" />

<g stroke="none" id="yticklabels400" text-anchor="end" fill="black">

<text y="76.75" x="23.5">0</text>

<text y="16.75" x="23.5">1</text>

<text y="52.75" x="23.5">0.4</text>

<text y="28.75" x="23.5">0.8</text>

<text y="4.75" x="23.5">1.2</text>

<text y="40.75" x="23.5">0.6</text>

<text y="64.75" x="23.5">0.2</text>

<text y="88.75" x="23.5">–0.2</text>

</g>

<path id="rightticks400" d="M197 87L197 3M197 75L195 75M197 15L195 15M197 51L195 51M197 27L195 27M197 39L195 39M197 63L195 63M197 81L196 81M197 69L196 69M197 57L196 57M197 45L196 45M197 33L196 33M197 21L196 21M197 9L196 9M197 3.00001L197 3" />

<g stroke="none" id="rightticklabels400" text-anchor="start" fill="black" />

<path id="topticks400" d="M24.5 3L197 3M32.0658 3L32.0658 5M47.1974 3L47.1974 5M62.3289 3L62.3289 5M77.4605 3L77.4605 5M92.5921 3L92.5921 5M107.724 3L107.724 5M122.855 3L122.855 5M137.987 3L137.987 5M153.118 3L153.118 5M168.25 3L168.25 5M183.382 3L183.382 5M197 3L197 3" />

<g stroke="none" id="topticklabels400" fill="black" />

</g>

<text stroke="none" transform="translate(165, 13)" font-size="5" fill="black">APE of ME12 (cm)</text>

<text stroke="none" transform="translate(134, 38) rotate(-90)" font-size="5" fill="black">APE outside</text>

<text y="20" x="150" font-size="5" stroke="none" fill="black">0.7</text>

<text y="20" x="160" font-size="5" stroke="none" fill="black">1.0</text>

<text y="20" x="170" font-size="5" stroke="none" fill="black">2.0</text>

<text y="20" x="180" font-size="5" stroke="none" fill="black">5.0</text>

<text y="28" x="140" font-size="5" stroke="none" fill="black">0.7</text>

<text y="36" x="140" font-size="5" stroke="none" fill="black">1.0</text>

<text y="44" x="140" font-size="5" stroke="none" fill="black">2.0</text>

<text y="52" x="140" font-size="5" stroke="none" fill="black">5.0</text>

<circle stroke="none" cx="150" r="1.5" cy="26" fill="rgb(0,0,0)" />

<circle stroke="none" cx="150" r="1.5" cy="34" fill="rgb(0,0,47)" />

<circle stroke="none" cx="150" r="1.5" cy="42" fill="rgb(0,0,137)" />

<circle stroke="none" cx="150" r="1.5" cy="50" fill="rgb(0,0,255)" />

<circle stroke="none" cx="160" r="1.5" cy="26" fill="rgb(47,0,0)" />

<circle stroke="none" cx="160" r="1.5" cy="34" fill="rgb(47,0,47)" />

<circle stroke="none" cx="160" r="1.5" cy="42" fill="rgb(47,0,137)" />

<circle stroke="none" cx="160" r="1.5" cy="50" fill="rgb(47,0,255)" />

<circle stroke="none" cx="170" r="1.5" cy="26" fill="rgb(137,0,0)" />

<circle stroke="none" cx="170" r="1.5" cy="34" fill="rgb(137,0,47)" />

<circle stroke="none" cx="170" r="1.5" cy="42" fill="rgb(137,0,137)" />

<circle stroke="none" cx="170" r="1.5" cy="50" fill="rgb(137,0,255)" />

<circle stroke="none" cx="180" r="1.5" cy="26" fill="rgb(255,0,0)" />

<circle stroke="none" cx="180" r="1.5" cy="34" fill="rgb(255,0,47)" />

<circle stroke="none" cx="180" r="1.5" cy="42" fill="rgb(255,0,137)" />

<circle stroke="none" cx="180" r="1.5" cy="50" fill="rgb(255,0,255)" />

</svg>

